<?xml version="1.0" encoding="utf-8"?>
<!-- Generator: Adobe Illustrator 24.1.0, SVG Export Plug-In . SVG Version: 6.00 Build 0)  -->
<svg version="1.1" id="Capa_1" xmlns="http://www.w3.org/2000/svg" xmlns:xlink="http://www.w3.org/1999/xlink" x="0px" y="0px"
	 viewBox="0 0 427 427" style="enable-background:new 0 0 427 427;" xml:space="preserve">
<style type="text/css">
	.st0{fill:#6D788B;}
</style>
<g>
	<g>
		<path class="st0" d="M125.7,121L125.7,121c-5.6,0-10.1,4.5-10.1,10s4.5,10,10,10h0.1c5.5,0,10-4.5,10-10S131.2,121,125.7,121z"/>
	</g>
</g>
<g>
	<g>
		<path class="st0" d="M288.3,178.3c-0.7-2.5-2.6-4.6-5.1-5.5c-1.5-0.5-35.9-11.4-65.8,18.4c-2.5,2.5-4.6,4.9-6.6,7.4
			c2.3-3.2,1.8-7.7-1.1-10.3c-29.2-26.2-61.4-15.9-62.8-15.5c-2.5,0.8-4.4,2.9-5.1,5.5c-1.7,6.1-9,37.7,18.6,65.2
			c5.7,5.7,11.9,10.2,18.6,13.6c1.1,0.6,2.3,0.8,3.5,0.8c2.9,0,5.6-1.6,7-4.3c1.9-3.9,0.4-8.6-3.5-10.5c-5.2-2.6-10.1-6.2-14.6-10.7
			c-17.6-17.6-17-36.9-15.5-45.7c8-1.3,26.2-2.2,43.3,13.2c3.2,2.9,8.1,2.6,11-0.6c0.1-0.1,0.2-0.3,0.4-0.4
			c-5.3,6.9-8.8,14-10.9,20.6l-15.9-15.8c-3.1-3-8-3-11,0c-3,3.1-3,8,0,11l23.8,23.7c-0.2,10.5,2.1,17.8,2.4,18.5
			c0.8,2.3,2.6,4.2,5,5c0.6,0.2,7.4,2.4,17.3,2.4c13.1,0,31.6-3.8,48.6-20.7C297.2,216.1,290.1,184.6,288.3,178.3z M141.6,179.3
			c0.1-0.5,0.1-0.8,0.2-1C141.7,178.6,141.6,178.9,141.6,179.3z M258.7,232.5c-12.4,12.4-25.6,15.7-35.4,16.1l34.4-34.3
			c3.1-3,3.1-8,0-11c-3-3.1-8-3.1-11,0l-34.4,34.4c0.4-9.7,3.8-23,16.1-35.3c17.8-17.8,37.4-16.9,45.8-15.5
			C275.7,195.6,276.2,214.9,258.7,232.5z"/>
	</g>
</g>
<g>
	<g>
		<path class="st0" d="M407.2,372.8H404V88.4h3.2c4.3,0,7.8-3.5,7.8-7.8s-3.5-7.8-7.8-7.8h-59.4V30.6h7.8c4.3,0,7.8-3.5,7.8-7.8
			s-3.5-7.8-7.8-7.8H74.4c-4.3,0-7.8,3.5-7.8,7.8s3.5,7.8,7.8,7.8h7.8v42.2H22.8c-4.3,0-7.8,3.5-7.8,7.8s3.5,7.8,7.8,7.8h3v284.4h-3
			c-4.3,0-7.8,3.5-7.8,7.8s3.5,7.8,7.8,7.8h59.4v10.9h-7.8c-4.3,0-7.8,3.5-7.8,7.8s3.5,7.8,7.8,7.8h281.2c4.3,0,7.8-3.5,7.8-7.8
			s-3.5-7.8-7.8-7.8h-7.8v-10.9h59.4c4.3,0,7.8-3.5,7.8-7.8S411.5,372.8,407.2,372.8z M82.2,372.8H41.5v-84.4h15.7
			c4.3,0,7.8-3.5,7.8-7.8s-3.5-7.8-7.8-7.8H41.5v-84.4h15.7c4.3,0,7.8-3.5,7.8-7.8s-3.5-7.8-7.8-7.8H41.5V88.4h40.7V372.8z
			 M222.8,30.6h78.1v73c0,4.1-3.3,7.4-7.4,7.4s-7.4-3.3-7.4-7.4V65c0-12.9-10.5-23.4-23.4-23.4S239.2,52.1,239.2,65v14.5
			c0,4.5-3.7,8.2-8.2,8.2s-8.2-3.7-8.2-8.2V30.6z M332.2,80.6v56.2H171.3c-4.3,0-7.8,3.5-7.8,7.8s3.5,7.8,7.8,7.8h160.9v125h-21.5
			c-4.3,0-7.8,3.5-7.8,7.8s3.5,7.8,7.8,7.8h21.5v87.5v18.8H97.8v-18.8V293h160.9c4.3,0,7.8-3.5,7.8-7.8s-3.5-7.8-7.8-7.8H97.8v-125
			h21.5c4.3,0,7.8-3.5,7.8-7.8s-3.5-7.8-7.8-7.8H97.8V80.6v-50h109.4v48.8c0,13.1,10.7,23.8,23.8,23.8s23.8-10.7,23.8-23.8V65
			c0-4.3,3.5-7.8,7.8-7.8s7.8,3.5,7.8,7.8v38.6c0,12.7,10.3,23,23,23s23-10.3,23-23v-73H332v50H332.2z M388.4,172.8h-19.5
			c-4.3,0-7.8,3.5-7.8,7.8s3.5,7.8,7.8,7.8h19.5v84.4h-19.5c-4.3,0-7.8,3.5-7.8,7.8s3.5,7.8,7.8,7.8h19.5v84.4h-40.5V88.4h40.5
			V172.8z"/>
	</g>
</g>
<g>
	<g>
		<path class="st0" d="M304.4,301h-0.1c-5.5,0-10,4.5-10,10s4.5,10,10,10h0.1c5.5,0,10-4.5,10-10S309.9,301,304.4,301z"/>
	</g>
</g>
</svg>
