<?xml version="1.0" encoding="utf-8"?>
<!-- Generator: Adobe Illustrator 24.1.0, SVG Export Plug-In . SVG Version: 6.00 Build 0)  -->
<svg version="1.1" id="Calque_1" xmlns="http://www.w3.org/2000/svg" xmlns:xlink="http://www.w3.org/1999/xlink" x="0px" y="0px"
	 viewBox="0 0 512 512" style="enable-background:new 0 0 512 512;" xml:space="preserve">
<style type="text/css">
	.st0{fill:#6D788B;}
</style>
<g id="Page-1">
	<g id="_x30_40---Trash" transform="translate(-1)">
		<path id="Shape" class="st0" d="M486.1,415.8c14.4-22.6,11.9-52-6-71.9s-47-25.4-70.9-13.4c-2.7-12.3-9.9-23.2-20.1-30.6l8.3-18.3
			c9.1,5.5,17.5,12.1,25.1,19.5c3.3,3.3,8.6,3.3,11.9,0.1c3.3-3.2,3.5-8.5,0.4-11.9c-9-9.1-19.2-16.9-30.3-23.3l7.1-15.6
			c14.6,7.8,28.3,16.9,41.1,27.3c2.3,2,5.5,2.6,8.4,1.5c2.9-1,5-3.5,5.5-6.5c0.6-3-0.5-6.1-2.9-8c-14-11.5-29.1-21.5-45.1-29.9
			l7.1-15.5c17.2,8.9,33.6,19.3,49,31.1c3.7,2.9,9.1,2.3,12-1.4s2.3-9.1-1.4-12c-16.5-12.7-34.1-23.8-52.6-33.3l7.1-15.6
			c20,9.7,39,21.3,56.8,34.7c1.5,1.2,3.4,1.8,5.3,1.8c1,0,1.9-0.2,2.8-0.5c2.8-1,4.8-3.3,5.5-6.1c10.4-44.7-14.9-98.5-42.9-111.2
			s-85.2,3.7-111.9,40.9c-1.7,2.4-2.1,5.4-1,8.2s3.5,4.7,6.4,5.2c21.8,4.6,43.1,11.2,63.6,19.9l-7.1,15.6
			c-19.3-7.7-39.3-13.6-59.8-17.7c-4.6-0.8-9.1,2.2-9.9,6.9s2.2,9.1,6.9,9.9c19,3.8,37.7,9.3,55.8,16.4l-7.1,15.5
			c-16.9-6.5-34.4-11.3-52.3-14.2c-3-0.5-6.1,0.7-8.1,3.1c-1.9,2.4-2.4,5.7-1.3,8.5c1.2,2.9,3.8,4.9,6.8,5.3
			c16.3,2.7,32.3,7.1,47.7,12.9l-7.1,15.6c-12.1-4.1-24.8-6.6-37.5-7.4H351c-4.7-0.1-8.6,3.6-8.7,8.3c-0.1,4.7,3.6,8.6,8.3,8.7
			c10.6,0.7,21.1,2.7,31.2,6l-8.1,17.8c-8.7-2.8-18-3-26.8-0.7c-5.8-11.4-17.5-18.6-30.3-18.6c0-25.7-16.4-48.5-40.7-56.6
			c-24.4-8.1-51.2,0.3-66.5,20.9c-8-11.7-22.3-17.3-36.1-13.9l-8.3,2l-8.1-33.1c-2.2-9.1-11.4-14.7-20.6-12.5l-33.1,8
			c-9.1,2.2-14.7,11.4-12.5,20.6l8.1,33.1l-8.3,2c-8.8,2.1-16.3,7.7-21,15.4c-4.7,7.7-6.1,17-4,25.8l9.6,39.5
			c-21.2,1.1-40.2,13.3-50,32.2s-8.7,41.5,2.8,59.4c-20.4,11.4-30.6,35-24.8,57.6s26.2,38.3,49.5,38.2h408.8
			c23.3,0.1,43.7-15.7,49.5-38.2C516.7,450.7,506.5,427.1,486.1,415.8L486.1,415.8z M460.1,122.5c17.3,7.9,37.1,43.8,35.2,78.5
			c-35.6-24.7-75.5-42.7-117.5-53.3C402.7,123.4,442.8,114.6,460.1,122.5z M118,428.5l-9.8-40.2c-0.5-2.2-0.2-4.5,1-6.5
			c1.1-1.9,3-3.3,5.2-3.8h0.1l99.3-24.2h0.1c4.5-1.1,9.1,1.7,10.2,6.3l8.3,34.3c-22.2,2.8-42.4,14.1-56.4,31.5
			C156.7,423.5,137.1,424.4,118,428.5L118,428.5z M216,327c1.1,4.5-1.6,9.1-6.1,10.2h-0.1l-99.3,24.2h-0.1
			c-4.5,1.1-9.1-1.7-10.2-6.3c-1.1-4.6,1.7-9.2,6.3-10.3l99.3-24.1C210.3,319.6,214.9,322.4,216,327z M107.3,204.4l33.1-8.1
			l8.1,33.1l-33.1,8.1L107.3,204.4z M84,267.8c2.3-3.9,6.1-6.6,10.5-7.7l16.5-4l24.8-6l41.4-10.1c1.3-0.3,2.7-0.5,4-0.5
			c7.9,0,14.7,5.4,16.6,13l10.1,41.4c1.1,4.6-1.7,9.2-6.3,10.3l-99.3,24.2c-4.6,1.1-9.2-1.7-10.3-6.3l-10.1-41.4
			C81,276.3,81.7,271.7,84,267.8L84,267.8z M461.4,494.5H52.6C35.5,494.6,21,481.9,18.8,465s8.5-32.9,25-37.3c2.9-0.8,5.2-3.1,6-6
			s0-6-2.1-8.2c-11.9-12.3-15.4-30.5-8.8-46.3s22.1-26,39.2-26.1c2.5,0,5,0.3,7.5,0.8c-5.8,11.3-2.1,25.2,8.5,32.3
			c-3,5.5-3.9,12-2.4,18.1l10,41.2c-7.7,2.8-14.9,7-21.1,12.3c-2.4,2.4-3.1,6.1-1.8,9.2c1.3,3.2,4.4,5.2,7.8,5.2
			c2.2,0,4.4-0.8,6-2.4c0.2-0.2,24.3-22.5,86.7-14.7c3.5,0.4,7-1.4,8.6-4.6c0.6-1.2,16-29.4,69-29.4c4.7,0,8.5-3.8,8.5-8.5
			s-3.8-8.5-8.5-8.5c-2.6,0-5,0.1-7.5,0.2l-8.9-36.5c-1.5-6.1-5.2-11.4-10.5-15c6.3-11.5,2.8-25.9-8.1-33.1c3-5.5,3.9-12,2.4-18.1
			l-7.6-31.1c7-19.5,27-31.1,47.3-27.5c20.4,3.5,35.3,21.2,35.3,41.9c0,2.9-0.2,5.7-0.9,8.5c-0.7,3.1,0.4,6.3,2.8,8.4
			s5.8,2.6,8.7,1.4c4.7-1.8,10-1.5,14.5,0.9s7.6,6.7,8.6,11.7c0.5,2.6,2.1,4.8,4.4,6s5.1,1.3,7.5,0.3c4.4-2,9.2-3.1,14-3.1
			c2.5,0,5,0.3,7.5,0.9l-16.5,36.4c-8.2-2-16.6-3-25-3.2c-4.7,0-8.5,3.8-8.5,8.5s3.8,8.5,8.5,8.5c8.5,0,33.2,2.6,45.1,14.5
			c3.3,3.2,8.7,3.2,11.9-0.1s3.3-8.6,0.1-11.9c-4.6-4.5-10-8.1-15.9-10.7l15.5-34.1c7.3,6.4,11.4,15.6,11.5,25.3
			c0,0.7-0.1,1.4-0.2,2.1l-0.3,2.1c-0.3,3.5,1.5,6.9,4.7,8.4c3.2,1.6,7,1,9.6-1.3c17-15,42.8-14,58.7,2.3
			c15.8,16.3,16.1,42.1,0.6,58.7c-2.1,2.2-2.9,5.3-2.1,8.2c0.8,2.9,3.1,5.2,6,6c16.5,4.4,27.2,20.3,25,37.3
			C493,481.9,478.5,494.5,461.4,494.5L461.4,494.5z"/>
		<circle id="Oval" class="st0" cx="248.5" cy="451.9" r="8.5"/>
		<circle id="Oval_1_" class="st0" cx="146.3" cy="468.9" r="8.5"/>
		<circle id="Oval_2_" class="st0" cx="257" cy="273" r="8.5"/>
		<circle id="Oval_3_" class="st0" cx="282.5" cy="341.2" r="8.5"/>
		<circle id="Oval_4_" class="st0" cx="384.7" cy="460.4" r="8.5"/>
		<circle id="Oval_5_" class="st0" cx="418.8" cy="400.8" r="8.5"/>
		<path id="Shape_1_" class="st0" d="M449.5,145.7c1.9-4.3,0-9.3-4.3-11.3c-4.3-1.9-9.3,0-11.3,4.3c-1.9,4.3,0,9.3,4.3,11.3
			c2.1,0.9,4.4,1,6.5,0.2S448.6,147.8,449.5,145.7z"/>
		<path id="Shape_2_" class="st0" d="M316.6,392.3c-14.1,0-25.5,11.4-25.5,25.5s11.4,25.5,25.5,25.5s25.5-11.4,25.5-25.5
			S330.7,392.3,316.6,392.3z M316.6,426.3c-4.7,0-8.5-3.8-8.5-8.5s3.8-8.5,8.5-8.5s8.5,3.8,8.5,8.5S321.3,426.3,316.6,426.3z"/>
		<path id="Shape_3_" class="st0" d="M35.6,51.6c0,14.1,11.4,25.5,25.5,25.5h17c12.8,0,23.6-9.4,25.3-22.1s-6.3-24.7-18.6-28
			l8.9-13.3c1.7-2.5,1.9-5.8,0.6-8.5s-4-4.5-7.1-4.7c-3-0.2-5.9,1.2-7.6,3.8l-9.9,14.9l-10-14.9c-2.6-3.9-7.9-5-11.8-2.4
			s-5,7.9-2.4,11.8L54.4,27C43.3,30.1,35.6,40.1,35.6,51.6z M61.1,43.1h17c4.7,0,8.5,3.8,8.5,8.5s-3.8,8.5-8.5,8.5h-17
			c-4.7,0-8.5-3.8-8.5-8.5S56.4,43.1,61.1,43.1z"/>
		<path id="Shape_4_" class="st0" d="M197.4,145.3c0,14.1,11.4,25.5,25.5,25.5h17c12.8,0,23.6-9.4,25.3-22.1
			c1.7-12.7-6.3-24.7-18.6-28l8.9-13.3c1.7-2.5,1.9-5.8,0.6-8.5c-1.3-2.7-4-4.5-7.1-4.7c-3-0.2-5.9,1.2-7.6,3.8l-9.9,14.9l-10-14.9
			c-2.6-3.9-7.9-5-11.8-2.4s-5,7.9-2.4,11.8l8.9,13.3C205.1,123.8,197.4,133.8,197.4,145.3L197.4,145.3z M222.9,136.8h17
			c4.7,0,8.5,3.8,8.5,8.5s-3.8,8.5-8.5,8.5h-17c-4.7,0-8.5-3.8-8.5-8.5S218.2,136.8,222.9,136.8z"/>
		<path id="Shape_5_" class="st0" d="M350.7,51.6c0,14.1,11.4,25.5,25.5,25.5h17c12.8,0,23.6-9.4,25.3-22.1
			c1.7-12.7-6.3-24.7-18.6-28l8.9-13.3c1.7-2.5,1.9-5.8,0.6-8.5s-4-4.5-7.1-4.7c-3-0.2-5.9,1.2-7.6,3.8l-9.9,14.9l-9.9-14.9
			c-2.6-3.9-7.9-5-11.8-2.4s-5,7.9-2.4,11.8l8.9,13.3C358.4,30.1,350.7,40.1,350.7,51.6L350.7,51.6z M376.2,43.1h17
			c4.7,0,8.5,3.8,8.5,8.5s-3.8,8.5-8.5,8.5h-17c-4.7,0-8.5-3.8-8.5-8.5S371.5,43.1,376.2,43.1z"/>
	</g>
</g>
</svg>
