<?xml version="1.0" encoding="utf-8"?>
<!-- Generator: Adobe Illustrator 24.1.0, SVG Export Plug-In . SVG Version: 6.00 Build 0)  -->
<svg version="1.1" id="Layer_1" xmlns="http://www.w3.org/2000/svg" xmlns:xlink="http://www.w3.org/1999/xlink" x="0px" y="0px"
	 viewBox="0 0 439 439" style="enable-background:new 0 0 439 439;" xml:space="preserve">
<style type="text/css">
	.st0{fill:#6D788B;}
</style>
<g>
	<g>
		<path class="st0" d="M418.3,208.1c-0.2-0.4-0.3-0.8-0.6-1.1c-0.4-0.7-0.9-1.2-1.5-1.8c-0.2-0.2-0.3-0.5-0.6-0.7
			c-0.1-0.1-0.3-0.1-0.4-0.2c-0.1-0.1-0.2-0.2-0.4-0.3l-37.4-21.4c5-4.8,8.3-11.3,8.3-18.7c0-9.9-5.6-18.9-14.5-23.4L310.1,110
			l7.1-17.7l4.8-2.4c2.5,1.5,5.4,2.3,8.3,2.3c1.5,0,3.1-0.2,4.6-0.6l64.2-18.4C410.9,69.8,419,59,419,46.8
			c0-15.1-12.3-27.3-27.3-27.3H384c-6.2,0-12.3,2.1-17.1,6l-46.7,37.4c-3.9,3.1-5.8,7.6-5.9,12.2l-7.3,3.7c-1.8,0.9-3.3,2.5-4,4.4
			l-7.8,19.4L271.9,91c-17.8-8.9-40.6-4.1-53.3,11.1l-71,85.2L25.2,219.8c-0.5,0.1-0.8,0.4-1.2,0.6c-0.2,0.1-0.6,0.1-0.8,0.2
			c-0.1,0.1-0.2,0.3-0.4,0.3c-1,0.7-2,1.6-2.6,2.6c-0.1,0.1-0.1,0.2-0.2,0.3c-0.6,1-0.8,2.2-0.9,3.4c0,0.2-0.1,0.3-0.1,0.5v116.7
			c0,3,1.6,5.8,4.2,7.2l116.7,66.7c1.3,0.7,2.7,1.1,4.1,1.1c0.8,0,1.7-0.1,2.5-0.4l266.7-83.3c3.5-1.1,5.9-4.3,5.9-7.9V211.2
			c0-0.3-0.2-0.5-0.2-0.8C418.7,209.6,418.6,208.8,418.3,208.1z M377.3,38.5c1.9-1.5,4.2-2.3,6.7-2.3h7.7c5.9,0,10.7,4.8,10.7,10.7
			c0,4.7-3.2,9-7.7,10.2l-59.8,17.1v-0.1c-0.2-0.4-0.5-0.6-0.8-1L377.3,38.5z M231.4,112.6c5.2-6.2,12.8-9.8,20.9-9.8
			c4.2,0,8.4,1,12.2,2.8l24.5,12.2l-1.7,4.2l-80.9,48.6c-3.9,2.4-5.2,7.5-2.8,11.4c1.6,2.6,4.3,4.1,7.1,4.1c1.5,0,2.9-0.4,4.3-1.2
			l83.3-50c1.6-0.9,2.8-2.4,3.4-4.1l2.2-5.5l59.9,29.9c3.2,1.6,5.2,4.9,5.2,8.6c0,4.4-3,8.2-7.2,9.2l-4,1h-0.1l-224.3,56.1
			L231.4,112.6z M135.7,396.8l-100-57.1v-97.5l100,57.1V396.8z M145,285.5l-95.9-54.8l80.1-21.4l-24.9,29.9
			c-2.3,2.8-2.6,6.7-0.7,9.8c1.5,2.5,4.2,3.9,7.1,3.9c0.7,0,1.3-0.1,2-0.3l28-7l24,14.4c1.4,0.8,2.8,1.2,4.3,1.2
			c2.8,0,5.6-1.4,7.2-4c2.4-3.9,1.1-9.1-2.9-11.4l-9.7-5.9l32-8l19.1,11.5c1.3,0.8,2.8,1.2,4.3,1.2c2.8,0,5.6-1.4,7.1-4
			c2.4-3.9,1.1-9.1-2.9-11.4l-4.9-2.9l32-8l14.2,8.5c1.4,0.8,2.9,1.2,4.3,1.2c2.8,0,5.6-1.4,7.1-4c2.4-3.9,1.1-9-2.8-11.4l32-8
			l9.3,5.6c1.4,0.8,2.8,1.2,4.3,1.2c2.8,0,5.6-1.4,7.2-4c1.5-2.5,1.4-5.5,0.2-8l32.4-8.1l31.2,17.9L145,285.5z M402.3,321.7
			l-250,78.1v-99.2l250-78.1V321.7z"/>
	</g>
</g>
</svg>
