<?xml version="1.0" encoding="iso-8859-1"?>
<!-- Generator: Adobe Illustrator 19.0.0, SVG Export Plug-In . SVG Version: 6.00 Build 0)  -->
<svg fill="#6d788b" version="1.1" id="Capa_1" xmlns="http://www.w3.org/2000/svg" xmlns:xlink="http://www.w3.org/1999/xlink" x="0px" y="0px"
	 viewBox="0 0 512 512" style="enable-background:new 0 0 512 512;" xml:space="preserve">
<g>

	<g>
		<path d="M503.467,0H230.4c-4.71,0-8.533,3.823-8.533,8.533v494.933c0,4.719,3.823,8.533,8.533,8.533h273.067
			c4.719,0,8.533-3.814,8.533-8.533V8.533C512,3.823,508.186,0,503.467,0z M494.933,494.933h-256V17.067h256V494.933z"/>
	</g>
</g>
<g>
	<g>
		<path d="M230.4,264.533H8.533c-4.71,0-8.533,3.814-8.533,8.533v230.4C0,508.186,3.823,512,8.533,512H230.4
			c4.71,0,8.533-3.814,8.533-8.533v-230.4C238.933,268.348,235.11,264.533,230.4,264.533z M221.867,494.933h-204.8V281.6h204.8
			V494.933z"/>
	</g>
</g>
<g>
	<g>
		<path d="M196.267,93.867H25.6c-4.71,0-8.533,3.823-8.533,8.533v170.667c0,4.719,3.823,8.533,8.533,8.533h170.667
			c4.71,0,8.533-3.814,8.533-8.533V102.4C204.8,97.69,200.977,93.867,196.267,93.867z M187.733,264.533h-153.6v-153.6h153.6V264.533
			z"/>
	</g>
</g>
<g>
	<g>
		<path d="M145.067,264.533h-51.2c-4.71,0-8.533,3.814-8.533,8.533v51.2c0,4.719,3.823,8.533,8.533,8.533h51.2
			c4.71,0,8.533-3.814,8.533-8.533v-51.2C153.6,268.348,149.777,264.533,145.067,264.533z M136.533,315.733H102.4V281.6h34.133
			V315.733z"/>
	</g>
</g>
<g>
	<g>
		<path d="M136.533,93.867h-51.2c-4.71,0-8.533,3.823-8.533,8.533v51.2c0,4.71,3.823,8.533,8.533,8.533h51.2
			c4.71,0,8.533-3.823,8.533-8.533v-51.2C145.067,97.69,141.244,93.867,136.533,93.867z M128,145.067H93.867v-34.133H128V145.067z"
			/>
	</g>
</g>
<g>
	<g>
		<path d="M409.6,0h-51.2c-4.719,0-8.533,3.823-8.533,8.533v51.2c0,4.71,3.814,8.533,8.533,8.533h51.2
			c4.719,0,8.533-3.823,8.533-8.533v-51.2C418.133,3.823,414.319,0,409.6,0z M401.067,51.2h-34.133V17.067h34.133V51.2z"/>
	</g>
</g>
<g>
	<g>
		<path d="M401.067,384h-51.2c-4.719,0-8.533,3.814-8.533,8.533V409.6c0,18.825,15.309,34.133,34.133,34.133
			c18.825,0,34.133-15.309,34.133-34.133v-17.067C409.6,387.814,405.786,384,401.067,384z M392.533,409.6
			c0,9.412-7.654,17.067-17.067,17.067c-9.412,0-17.067-7.654-17.067-17.067v-8.533h34.133V409.6z"/>
	</g>
</g>
<g>
	<g>
		<rect x="349.867" y="460.8" width="51.2" height="17.067"/>
	</g>
</g>
<g>
	<g>
		<rect x="366.933" y="435.2" width="17.067" height="34.133"/>
	</g>
</g>
<g>
	<g>
		<rect x="426.667" y="460.8" width="51.2" height="17.067"/>
	</g>
</g>
<g>
	<g>
		<rect x="443.733" y="392.533" width="17.067" height="51.2"/>
	</g>
</g>
<g>
	<g>
		<path d="M458.3,386.5c-3.337-3.337-8.73-3.337-12.066,0l-25.6,25.6l12.066,12.066l19.567-19.567l19.567,19.567L483.9,412.1
			L458.3,386.5z"/>
	</g>
</g>
<g>
	<g>
		<path d="M290.133,384C271.309,384,256,399.309,256,418.133v8.533c0,4.719,3.814,8.533,8.533,8.533h51.2
			c4.719,0,8.533-3.814,8.533-8.533v-8.533C324.267,399.309,308.958,384,290.133,384z M273.067,418.133
			c0-9.412,7.654-17.067,17.067-17.067c9.412,0,17.067,7.654,17.067,17.067H273.067z"/>
	</g>
</g>
<g>
	<g>
		<path d="M281.6,426.667V460.8h-17.067v17.067h25.6c4.719,0,8.533-3.814,8.533-8.533v-42.667H281.6z"/>
	</g>
</g>
<g>
	<g>
		<rect x="153.6" y="230.4" width="17.067" height="17.067"/>
	</g>
</g>
<g>
	<g>
		<rect x="119.467" y="230.4" width="17.067" height="17.067"/>
	</g>
</g>
<g>
	<g>
		<rect x="85.333" y="230.4" width="17.067" height="17.067"/>
	</g>
</g>
<g>
	<g>
		<rect x="187.733" y="460.8" width="17.067" height="17.067"/>
	</g>
</g>
<g>
	<g>
		<rect x="153.6" y="460.8" width="17.067" height="17.067"/>
	</g>
</g>
<g>
	<g>
		<rect x="119.467" y="460.8" width="17.067" height="17.067"/>
	</g>
</g>
<g>
</g>
<g>
</g>
<g>
</g>
<g>
</g>
<g>
</g>
<g>
</g>
<g>
</g>
<g>
</g>
<g>
</g>
<g>
</g>
<g>
</g>
<g>
</g>
<g>
</g>
<g>
</g>
<g>
</g>
</svg>
