<?xml version="1.0" encoding="utf-8"?>
<!-- Generator: Adobe Illustrator 21.0.0, SVG Export Plug-In . SVG Version: 6.00 Build 0)  -->
<svg version="1.1" id="Calque_1" xmlns="http://www.w3.org/2000/svg" xmlns:xlink="http://www.w3.org/1999/xlink" x="0px" y="0px"
	 viewBox="0 0 512 512" style="enable-background:new 0 0 512 512;" xml:space="preserve">
<style type="text/css">
	.st0{fill:#6D788B;}
</style>
<g id="Page-1">
	<g id="_x30_61---Broken-TV" transform="translate(0 -1)">
		<path id="Shape" class="st0" d="M486.4,103.4H323.7c-1.2-9.7-4.5-19.1-9.7-27.4l16.5-5.5c5-1.6,9.3-4.7,12.4-8.9l8-10.7
			c2.4,0.8,5,1.2,7.6,1.3c11.8,0,22-8,24.9-19.4s-2.4-23.3-12.8-28.9c-10.4-5.6-23.2-3.3-31.1,5.4c-7.9,8.7-8.9,21.7-2.4,31.5
			l-7.9,10.6c-1,1.4-2.5,2.4-4.1,3l-22.7,7.6c-22.9-21.3-57.3-24.3-83.5-7.2l-40.1-23.4c0.3-1.6,0.5-3.2,0.5-4.8
			c0-14.1-11.5-25.6-25.6-25.6S128,12.5,128,26.6s11.5,25.6,25.6,25.6c6,0,11.9-2.2,16.4-6.1l35.1,20.5
			c-9.2,10.3-15.1,23.1-16.8,36.9H25.6C11.5,103.4,0,114.9,0,129v324.3c0,14.1,11.5,25.6,25.6,25.6v17.1c0,9.4,7.6,17.1,17.1,17.1
			h68.3c9.4,0,17.1-7.6,17.1-17.1v-17.1h256v17.1c0,9.4,7.6,17.1,17.1,17.1h68.3c9.4,0,17.1-7.6,17.1-17.1v-17.1
			c14.1,0,25.6-11.5,25.6-25.6V129C512,114.9,500.5,103.4,486.4,103.4L486.4,103.4z M358.4,18.1c4.7,0,8.5,3.8,8.5,8.5
			s-3.8,8.5-8.5,8.5s-8.5-3.8-8.5-8.5S353.7,18.1,358.4,18.1z M153.6,35.1c-4.7,0-8.5-3.8-8.5-8.5s3.8-8.5,8.5-8.5s8.5,3.8,8.5,8.5
			c0,2.3-0.9,4.4-2.5,6C158,34.2,155.9,35.1,153.6,35.1z M256,60.7c25,0,46.3,18.1,50.4,42.7H205.6C209.7,78.8,231,60.8,256,60.7z
			 M110.9,495.9H42.7v-17.1h68.3V495.9z M469.3,495.9h-68.3v-17.1h68.3V495.9z M494.9,453.3c0,4.7-3.8,8.5-8.5,8.5H25.6
			c-4.7,0-8.5-3.8-8.5-8.5V129c0-4.7,3.8-8.5,8.5-8.5h460.8c4.7,0,8.5,3.8,8.5,8.5V453.3z"/>
		<path id="Shape_1_" class="st0" d="M324.3,137.5H51.2c-9.4,0-17.1,7.6-17.1,17.1v273.1c0,9.4,7.6,17.1,17.1,17.1h273.1
			c9.4,0,17.1-7.6,17.1-17.1V154.6C341.3,145.2,333.7,137.5,324.3,137.5z M324.3,427.7H51.2V154.6h273.1V427.7z"/>
		<path id="Shape_2_" class="st0" d="M418.1,205.8c18.9,0,34.1-15.3,34.1-34.1s-15.3-34.1-34.1-34.1c-18.9,0-34.1,15.3-34.1,34.1
			S399.3,205.8,418.1,205.8z M418.1,154.6c9.4,0,17.1,7.6,17.1,17.1c0,9.4-7.6,17.1-17.1,17.1s-17.1-7.6-17.1-17.1
			C401.1,162.2,408.7,154.6,418.1,154.6z"/>
		<path id="Shape_3_" class="st0" d="M418.1,291.1c18.9,0,34.1-15.3,34.1-34.1c0-18.9-15.3-34.1-34.1-34.1
			c-18.9,0-34.1,15.3-34.1,34.1S399.3,291.1,418.1,291.1z M418.1,239.9c9.4,0,17.1,7.6,17.1,17.1s-7.6,17.1-17.1,17.1
			s-17.1-7.6-17.1-17.1C401.1,247.6,408.7,239.9,418.1,239.9z"/>
		<path id="Shape_4_" class="st0" d="M452.3,308.2H384c-9.4,0-17.1,7.6-17.1,17.1v102.4c0,9.4,7.6,17.1,17.1,17.1h68.3
			c9.4,0,17.1-7.6,17.1-17.1V325.3C469.3,315.8,461.7,308.2,452.3,308.2z M452.3,325.3v25.6H384v-25.6H452.3z M452.3,367.9v25.6H384
			v-25.6H452.3z M384,427.7v-17.1h68.3v17.1H384z"/>
		<path id="Shape_5_" class="st0" d="M83.6,367.8c0.6,0.1,1.1,0.2,1.7,0.2c4.1,0,7.5-2.9,8.4-6.8l7.7-38.6l67.3-33.7l-6.2,49.9
			c-0.4,3.3,0.2,6.7,1.7,9.7l15.9,31.8c2.1,4.2,7.2,5.9,11.5,3.8c4.2-2.1,5.9-7.2,3.8-11.5l-15.9-31.8l6.7-53.8l37.2,18.6l6.3,18.9
			c1.4,4.3,4.5,7.8,8.5,9.9l31,15.5c2.7,1.4,6,1.2,8.5-0.5s4-4.6,3.8-7.6c-0.2-3-2-5.8-4.7-7.1l-31-15.5l-6.3-18.9
			c-1.4-4.3-4.5-7.8-8.5-9.9l-34.4-17.2l46.7-29.2l10.3,25.8c3.4,8.4,12.7,12.7,21.2,9.8l18-6c2.9-1,5.1-3.4,5.7-6.4
			c0.6-3-0.4-6.1-2.7-8.1c-2.3-2-5.5-2.7-8.4-1.7l-17.9,6l-10.3-25.7c-1.9-4.7-5.7-8.3-10.5-9.9c-4.8-1.6-10.1-0.9-14.3,1.8
			l-46.6,29.1v-39.1l29.4-14.7c4.2-2.1,5.9-7.2,3.8-11.5s-7.2-5.9-11.5-3.8l-29.4,14.7c-5.8,2.9-9.4,8.8-9.4,15.2V257l-54.6-41
			c-3.8-2.8-9.1-2.1-11.9,1.7c-2.8,3.8-2.1,9.1,1.7,11.9l57.2,42.9l-69.2,34.6c-4.7,2.3-8.1,6.8-9.1,11.9L77,357.7
			c-0.5,2.2,0,4.5,1.2,6.4C79.5,366,81.4,367.3,83.6,367.8L83.6,367.8z"/>
	</g>
</g>
</svg>
