<?xml version="1.0" encoding="utf-8"?>
<!-- Generator: Adobe Illustrator 24.1.0, SVG Export Plug-In . SVG Version: 6.00 Build 0)  -->
<svg version="1.1" id="Calque_1" focusable="false" xmlns="http://www.w3.org/2000/svg" xmlns:xlink="http://www.w3.org/1999/xlink"
	 x="0px" y="0px" viewBox="0 0 448 448" style="enable-background:new 0 0 448 448;" xml:space="preserve">
<style type="text/css">
	.st0{fill:#F6FFC5;}
</style>
<path class="st0" d="M399.2,0H47.9C21.1,0,0,21.1,0,47.9v352.1C0,426.9,21.1,448,47.9,448H185V295.7h-62.7V224H185v-55.1
	c0-61.4,37.2-96.8,94.1-96.8c26.9,0,55.6,4.5,55.6,4.5v60h-31.4c-31.4,0-40.3,19.3-40.3,39v46.6h68.1l-10.8,71.7h-58.2V448h138
	c26.9,0,47.9-21.1,47.9-47.9V47.9C447.1,21.1,426,0,399.2,0z"/>
</svg>
