<?xml version="1.0" encoding="utf-8"?>
<!-- Generator: Adobe Illustrator 24.1.0, SVG Export Plug-In . SVG Version: 6.00 Build 0)  -->
<svg version="1.1" id="Capa_1" xmlns="http://www.w3.org/2000/svg" xmlns:xlink="http://www.w3.org/1999/xlink" x="0px" y="0px"
	 viewBox="0 0 512 512" style="enable-background:new 0 0 512 512;" xml:space="preserve">
<style type="text/css">
	.st0{fill:#F6FFC5;}
</style>
<g>
	<g>
		<g>
			<path class="st0" d="M448,309.3c-20.8,0-64,11.6-85.9,17.9c-2.9-30.6-42.1-41.4-82.7-49.7c-18.5-3.8-32.3-10.4-45.6-16.8
				c-16.4-7.9-31.9-15.4-52.5-15.4c-23.6,0-45.1,4.8-57.3,8.2c-3.2-11.2-12.3-20.2-24.4-22.6l-86.9-17.4c-3.1-0.6-6.4,0.2-8.9,2.2
				c-2.5,2-3.9,5.1-3.9,8.2v170.7c0,5.9,4.8,10.7,10.7,10.7h66.8c13.2,0,24.4-8.4,29.2-20.1C130.6,396.6,241.1,448,288,448
				c41.4,0,126.6-41.9,182.9-69.6c14.7-7.2,26.8-13.2,34.7-16.6c3.9-1.7,6.4-5.5,6.4-9.8C512,326.9,485.7,309.3,448,309.3z
				 M103.9,263.8l-15.9,111c-0.8,5.2-5.3,9.2-10.6,9.2H21.3V237l74.1,14.8C101,252.9,104.7,258.2,103.9,263.8z M461.5,359.3
				c-51.3,25.2-137.1,67.4-173.5,67.4c-38.8,0-140.7-45.4-176.7-62.9c0,0-0.1,0-0.1,0l12.6-87.9c7.8-2.4,31.5-9.1,57.6-9.1
				c15.8,0,27.9,5.9,43.3,13.3c13.8,6.7,29.5,14.2,50.6,18.5c46.4,9.4,66.1,19,66.1,32.2c0,2.6-0.8,4.2-2.8,5.7
				c-6.8,5.1-33.3,13.6-132.8-15.9c-5.7-1.6-11.6,1.6-13.3,7.2c-1.7,5.6,1.5,11.6,7.2,13.3c49.1,14.6,86.7,21.8,113.3,21.8
				c17.4,0,30.1-3.1,38.3-9.2c0.7-0.5,1.2-1.2,1.9-1.7c0.7-0.1,1.3,0,2-0.2c18.9-5.8,72.3-20.9,92.9-20.9c17.4,0,35.7,5.3,41.1,15.2
				C481.6,349.4,472.2,354,461.5,359.3z"/>
			<path class="st0" d="M333.8,252.9c2.1,2.1,4.8,3.1,7.5,3.1s5.4-1,7.5-3.1l80.4-79.7c12.1-12.1,18.8-28.2,18.8-45.2
				c0-35.3-28.7-64-64-64c-16,0-31,5.9-42.7,16.5C329.7,69.9,314.7,64,298.7,64c-35.3,0-64,28.7-64,64c0,17.1,6.7,33.2,18.8,45.3
				L333.8,252.9z M298.7,85.3c13.5,0,25.9,6.3,34.1,17.3c4,5.4,13.1,5.4,17.1,0c8.2-11,20.6-17.3,34.1-17.3
				c23.5,0,42.7,19.1,42.7,42.7c0,11.4-4.4,22.1-12.5,30.1l-72.9,72.2l-72.8-72.2c-8.1-8.1-12.5-18.8-12.5-30.2
				C256,104.5,275.1,85.3,298.7,85.3z"/>
		</g>
	</g>
</g>
</svg>
