<svg fill="#6d788b" id="Layer_1" enable-background="new 0 0 512 512" height="512" viewBox="0 0 512 512" width="512" xmlns="http://www.w3.org/2000/svg"><g><g><path d="m65.509 0v62.614h380.982v-62.614zm365.982 47.614h-350.982v-32.614h350.982z"/><path d="m156.88 464.39h274.61v32.61h-350.98v-32.61h61.37v-15h-76.37v62.61h380.98v-62.61h-289.61z"/><path d="m430.74 85.11h-15v144.58h-15.96v15h31.71v22.62h-31.71v15h15.96v144.58h15v-144.58h15.75v-52.62h-15.75z"/><path d="m81.26 85.11v144.58h-15.75v52.62h15.75v144.58h15v-144.58h15.96v-15h-31.71v-22.62h31.71v-15h-15.96v-144.58z"/><path d="m133.5 256c0 67.547 54.953 122.5 122.5 122.5s122.5-54.953 122.5-122.5c0-30.993-11.606-60.576-32.681-83.3l-10.998 10.2c18.494 19.941 28.679 45.902 28.679 73.1 0 59.276-48.225 107.5-107.5 107.5s-107.5-48.224-107.5-107.5 48.225-107.5 107.5-107.5c25.038 0 49.41 8.793 68.627 24.759l9.586-11.537c-21.904-18.2-49.681-28.222-78.213-28.222-67.547 0-122.5 54.953-122.5 122.5z"/><path d="m263.5 341.883v-19.462l15.085-15.086c17.955 3.243 35.886-2.776 48.13-15.019 13.662-13.662 19.049-33.765 14.058-52.464l-1.119-4.193-4.193-1.119c-18.696-4.987-38.801.398-52.464 14.059-12.612 12.612-18.164 30.712-15.018 48.13l-4.479 4.479v-39.891c14.541-10.093 23.414-26.818 23.414-44.653 0-19.32-10.406-37.344-27.157-47.038l-3.757-2.175-3.757 2.174c-16.751 9.694-27.157 27.718-27.157 47.038 0 17.835 8.873 34.56 23.414 44.653v39.891l-4.479-4.479c3.146-17.418-2.406-35.518-15.018-48.13-13.662-13.662-33.768-19.049-52.464-14.059l-4.193 1.119-1.119 4.193c-4.991 18.699.396 38.802 14.058 52.464 12.253 12.253 30.186 18.259 48.13 15.019l15.085 15.086v19.462h15zm63.689-93.758c3.21 21.833-12.04 42.089-34.173 44.78l9.494-9.494-10.607-10.606-9.492 9.492c2.693-22.118 22.943-37.385 44.778-34.172zm-142.378 0c21.835-3.209 42.083 12.037 44.778 34.172l-9.492-9.492-10.607 10.606 9.492 9.492c-22.143-2.697-37.379-22.965-34.171-44.778zm71.189-63.045c17.668 13.139 21.272 38.236 7.5 55.826v-13.424h-15v13.424c-13.752-17.563-10.192-42.668 7.5-55.826z"/></g><g><path d="m308.259 417.375h-15v-15h15zm-45 0h-15v-15h15zm-45 0h-15v-15h15z"/></g><g><g><path d="m113.783 78.5h15v15h-15z"/></g><g><path d="m383.351 78.5h15v15h-15z"/></g></g></g></svg>