<?xml version="1.0" encoding="utf-8"?>
<!-- Generator: Adobe Illustrator 24.1.0, SVG Export Plug-In . SVG Version: 6.00 Build 0)  -->
<svg version="1.1" id="Calque_1" focusable="false" xmlns="http://www.w3.org/2000/svg" xmlns:xlink="http://www.w3.org/1999/xlink"
	 x="0px" y="0px" viewBox="0 0 448 448" style="enable-background:new 0 0 448 448;" xml:space="preserve">
<style type="text/css">
	.st0{fill:#F6FFC5;}
</style>
<path class="st0" d="M223.4,170.2c-29.6,0-53.8,23.7-53.8,53.8c0,29.6,23.8,53.8,53.8,53.8c29.6,0,53.8-23.7,53.8-53.8
	C277.2,194.4,253,170.2,223.4,170.2z M347.6,129.9c-5.8-13.4-16.6-25.1-30-30c-21.1-7.6-70.4-7.2-94.2-7.2s-73.1-1.8-94.2,7.2
	c-13.5,5.8-24.2,16.6-30,30C91.5,151,92,200.3,92,224c0,23.7-1.8,73,7.2,94.1c5.8,13.4,16.6,25.1,30,30c21.1,7.6,70.4,7.2,94.2,7.2
	s73.1,2.7,94.2-7.2c13.5-5.8,25.1-16.6,30-30c7.6-21.1,7.2-70.3,7.2-94.1C354.8,200.3,356.6,151,347.6,129.9L347.6,129.9z
	 M223.4,306c-44.8,0-82.1-37.2-82.1-82c0-44.8,37.2-82,82.1-82s82.1,37.2,82.1,82C305.4,268.8,269.6,306,223.4,306L223.4,306z
	 M308.6,158.1c-10.3,0-19.3-9-19.3-19.3s9-19.3,19.3-19.3c10.3,0,19.3,9,19.3,19.3l0,0C327.9,149.2,320.2,158.1,308.6,158.1
	L308.6,158.1L308.6,158.1z M399.6,0h-352c-26.9,0-48,21.1-48,47.9v352.1c0,26.9,21.1,47.9,48,47.9h352c26.9,0,48-21.1,48-47.9V47.9
	C447.6,21.1,426.5,0,399.6,0z M382.6,289.9c-1.3,25.5-7.2,47.9-25.6,67.2c-19.3,19.3-41.7,25.1-67.3,25.5
	c-26.9,1.3-105.4,1.3-132.7,0c-25.6-1.3-48-7.2-67.3-25.5c-19.3-19.3-25.1-41.7-25.6-67.2c-1.3-26.9-1.3-104.8,0-131.7
	c1.3-25.5,7.2-47.9,25.6-67.2C109,71.7,131.5,65.9,157,65.4c26.9-1.3,105.4-1.3,132.7,0c25.6,1.3,48,7.2,67.3,25.5
	c19.3,19.3,25.1,41.7,25.6,67.2C383.5,185,383.5,263,382.6,289.9z"/>
</svg>
