<?xml version="1.0" encoding="utf-8"?>
<!-- Generator: Adobe Illustrator 24.1.0, SVG Export Plug-In . SVG Version: 6.00 Build 0)  -->
<svg version="1.1" id="Calque_1" focusable="false" xmlns="http://www.w3.org/2000/svg" xmlns:xlink="http://www.w3.org/1999/xlink"
	 x="0px" y="0px" viewBox="0 0 448 448" style="enable-background:new 0 0 448 448;" xml:space="preserve">
<style type="text/css">
	.st0{fill:#F6FFC5;}
</style>
<path class="st0" d="M414.9,0H30.9C13,0-0.4,14.8-0.4,32.7v382.6c0,17.9,14.8,32.7,31.4,32.7h383.9c17.9,0,32.7-14.8,32.7-32.7V32.7
	C447.6,14.3,432.8,0,414.9,0z M135.3,383H69.4V169.8h65.9V383L135.3,383z M101.3,141.1c-21.1,0-37.6-16.6-37.6-37.6
	s16.6-37.6,37.6-37.6s37.6,16.6,37.6,37.6C141.1,123.6,122.3,141.1,101.3,141.1z M383.5,383h-65.9V278.7c0-25.1,0-56.9-34.5-56.9
	s-40.3,26.9-40.3,55.1v105.3H177V168.9H241v29.6h1.3c9-16.6,30-34.5,62.7-34.5c67.2,0,79.3,44.8,79.3,101.7L383.5,383L383.5,383z"/>
</svg>
