<svg xmlns="http://www.w3.org/2000/svg" xmlns:xlink="http://www.w3.org/1999/xlink" viewBox="0 0 160 123.19"><defs><style>.cls-1{fill:#89c8fd;}.cls-2{fill:#60b6ff;}.cls-3{fill:#baeb6c;}.cls-4{fill:#96d629;}.cls-5{fill:#09a66d;}.cls-6{fill:#49cb5c;}.cls-7{fill:#07b128;}.cls-8{fill:url(#Dégradé_sans_nom_10);}.cls-9{fill:url(#Dégradé_sans_nom_10-2);}.cls-10{fill:url(#Dégradé_sans_nom_10-3);}.cls-11{fill:url(#Dégradé_sans_nom_10-4);}.cls-12{fill:url(#Dégradé_sans_nom_10-5);}.cls-13{fill:url(#Dégradé_sans_nom_10-6);}.cls-14{fill:url(#Dégradé_sans_nom_10-7);}.cls-15{fill:url(#Dégradé_sans_nom_10-8);}.cls-16{fill:url(#Dégradé_sans_nom_10-9);}</style><linearGradient id="Dégradé_sans_nom_10" x1="39.28" y1="61.6" x2="70.58" y2="61.6" gradientUnits="userSpaceOnUse"><stop offset="0" stop-color="#009245"/><stop offset="1" stop-color="#30c63e"/></linearGradient><linearGradient id="Dégradé_sans_nom_10-2" x1="77.3" y1="61.34" x2="82.03" y2="61.34" xlink:href="#Dégradé_sans_nom_10"/><linearGradient id="Dégradé_sans_nom_10-3" x1="87.04" y1="66.38" x2="105.61" y2="66.38" xlink:href="#Dégradé_sans_nom_10"/><linearGradient id="Dégradé_sans_nom_10-4" x1="107.99" y1="63.29" x2="120.71" y2="63.29" xlink:href="#Dégradé_sans_nom_10"/><linearGradient id="Dégradé_sans_nom_10-5" x1="124.25" y1="66.38" x2="144.08" y2="66.38" xlink:href="#Dégradé_sans_nom_10"/><linearGradient id="Dégradé_sans_nom_10-6" x1="148.7" y1="66.13" x2="160" y2="66.13" xlink:href="#Dégradé_sans_nom_10"/><linearGradient id="Dégradé_sans_nom_10-7" x1="66.51" y1="104.56" x2="87.91" y2="104.56" xlink:href="#Dégradé_sans_nom_10"/><linearGradient id="Dégradé_sans_nom_10-8" x1="93.44" y1="104.3" x2="98.17" y2="104.3" xlink:href="#Dégradé_sans_nom_10"/><linearGradient id="Dégradé_sans_nom_10-9" x1="104.15" y1="109.09" x2="122.53" y2="109.09" xlink:href="#Dégradé_sans_nom_10"/></defs><g id="Calque_2" data-name="Calque 2"><g id="Calque_1-2" data-name="Calque 1"><path class="cls-1" d="M57.67,48.25c0-15.24-11.2-27.6-25-27.6s-25,12.36-25,27.6,11.2,27.6,25,27.6S57.67,63.5,57.67,48.25Z"/><path class="cls-2" d="M32.65,20.65a23.51,23.51,0,0,0-3.78.31c12,2,21.25,13.46,21.25,27.29S40.9,73.53,28.87,75.54a22.42,22.42,0,0,0,3.78.31c13.82,0,25-12.35,25-27.6S46.47,20.65,32.65,20.65Z"/><path class="cls-3" d="M29.39,31.38c-3.85,2.65-6.75,6.91-4.58,11.69s7,2.92,11.45,2.26S37.34,59.81,40,63.53s10.13-3.72,9.4-8.5C48.32,48,48,45.46,56.62,40.41h0c-2.93-10.89-11.78-19-22.44-19.69v0S33.25,28.72,29.39,31.38Z"/><path class="cls-3" d="M48.33,26.74Z"/><path class="cls-3" d="M51.39,30Z"/><path class="cls-3" d="M16,60.74c-1.16-1.94,2.05-6.51,2.77-10s-3.62-3.19-4.94-4.39S10.72,40,9.39,38.82l-.21-.19a30.12,30.12,0,0,0-1.56,9.62,28.55,28.55,0,0,0,10.2,22.24v-.58A13.78,13.78,0,0,0,16,60.74Z"/><path class="cls-3" d="M49.39,55v-.1a29.19,29.19,0,0,1-2.08,6C48.72,59.14,49.67,56.88,49.39,55Z"/><path class="cls-4" d="M34.21,20.71v0s-.08.66-.29,1.67C42.7,26.08,49.13,35,50,45.72c1.11-1.67,3.13-3.28,6.61-5.31h0C53.72,29.51,44.87,21.43,34.21,20.71Z"/><path class="cls-5" d="M32.53,83.87a30.43,30.43,0,0,1-5.36-.48A32,32,0,0,1,6.08,69,38.06,38.06,0,0,1,.44,42.47a1.16,1.16,0,0,1,1.31-1,1.22,1.22,0,0,1,.93,1.43A35.4,35.4,0,0,0,7.93,67.55,29.75,29.75,0,0,0,27.54,80.93c16.42,3,32-9.26,34.69-27.27A35.38,35.38,0,0,0,57,29,29.77,29.77,0,0,0,37.38,15.61a1.25,1.25,0,0,1-.94-1.44,1.16,1.16,0,0,1,1.31-1A32,32,0,0,1,58.84,27.54a38,38,0,0,1,5.64,26.53A36,36,0,0,1,51.36,77.2,30.32,30.32,0,0,1,32.53,83.87Z"/><path class="cls-6" d="M25.73,30.12c-12.11-2.26-19.62-19-19.62-19S18.23-2,30.33.26,50,19.28,50,19.28,37.83,32.38,25.73,30.12Z"/><path class="cls-7" d="M30.33.26a17.15,17.15,0,0,0-6.85.19c11.6,2.87,18.76,18.83,18.76,18.83s-7.93,8.58-17.37,10.65c.28.07.57.14.86.19C37.83,32.38,50,19.28,50,19.28S42.44,2.52,30.33.26Z"/><path class="cls-5" d="M49.26,17.89l-11.83-2.2L26.37,0a19.18,19.18,0,0,0-2.62.35L34.12,15.08,25.2,13.42,17.58,2.59c-.71.35-1.41.73-2.08,1.12l6.4,9.1L7.14,10.07c-.66.64-1,1-1,1s.25.54.71,1.44L21.5,15.27l-8.14,6.92c.53.59,1.08,1.18,1.65,1.75l9.54-8.11L34,17.59,21.14,28.52a18.62,18.62,0,0,0,2.48,1.05L37,18.15l11.84,2.2c.69-.66,1.07-1.07,1.07-1.07S49.71,18.76,49.26,17.89Z"/><path class="cls-6" d="M58.18,13.85C61.43,5.4,72.68,2.56,72.68,2.56s6,10.85,2.74,19.3-14.5,11.3-14.5,11.3S54.93,22.3,58.18,13.85Z"/><path class="cls-7" d="M72.68,2.56A28.52,28.52,0,0,0,67.09,4.8c1.55,3.62,4,11,1.67,17.06-1.69,4.42-5.58,7.31-8.91,9.06.6,1.4,1.07,2.24,1.07,2.24s11.25-2.85,14.5-11.3S72.68,2.56,72.68,2.56Z"/><path class="cls-5" d="M76.34,14.89l-8.66,4L73.36,4c-.4-.88-.68-1.39-.68-1.39s-.54.13-1.41.43L65.4,18.43,61.76,8.58A17,17,0,0,0,60,10.53l4.13,11.16L60.28,31.88c.38.81.64,1.28.64,1.28s.58-.15,1.52-.47l4-10.52,9.89-4.57A20.42,20.42,0,0,0,76.34,14.89Z"/><path class="cls-8" d="M44.64,43,54.92,73.37,65.2,43h5.38V80.23H66.43V65.72l.39-15.67L56.5,80.23H53.32L43,50.13l.41,15.59V80.23H39.28V43Z"/><path class="cls-9" d="M77.3,45.19a3.2,3.2,0,0,1,.59-1.95,2.37,2.37,0,0,1,3.53,0A3.09,3.09,0,0,1,82,45.19a3,3,0,0,1-.61,1.92,2.41,2.41,0,0,1-3.53,0A3.07,3.07,0,0,1,77.3,45.19Zm4.32,35h-4V52.53h4Z"/><path class="cls-10" d="M101.62,72.88a3.77,3.77,0,0,0-1.22-3,10.66,10.66,0,0,0-4.26-1.83,17.72,17.72,0,0,1-4.81-1.84,7.31,7.31,0,0,1-2.64-2.56,7,7,0,0,1-.85-3.53,7.71,7.71,0,0,1,2.43-5.76A8.56,8.56,0,0,1,96.48,52a8.77,8.77,0,0,1,6.44,2.43,8.37,8.37,0,0,1,2.48,6.22h-4A4.6,4.6,0,0,0,100,57.32a4.73,4.73,0,0,0-3.51-1.41A4.9,4.9,0,0,0,93.06,57,3.8,3.8,0,0,0,91.83,60,3.06,3.06,0,0,0,93,62.57a12.71,12.71,0,0,0,4.13,1.66,18.91,18.91,0,0,1,4.85,1.9,6.8,6.8,0,0,1,3.65,6.42,7.57,7.57,0,0,1-2.5,6,9.36,9.36,0,0,1-6.5,2.24,10.28,10.28,0,0,1-5-1.17,8.62,8.62,0,0,1-3.38-3.29A9,9,0,0,1,87,71.71h4a5.28,5.28,0,0,0,1.61,3.77,5.61,5.61,0,0,0,4,1.4,5.68,5.68,0,0,0,3.64-1.09A3.53,3.53,0,0,0,101.62,72.88Z"/><path class="cls-11" d="M116.24,45.83v6.7h4.36V56.2h-4.36V73.39a4.36,4.36,0,0,0,.58,2.5,2.24,2.24,0,0,0,2,.83,8.47,8.47,0,0,0,1.9-.3v3.81a9.92,9.92,0,0,1-3.07.51,4.61,4.61,0,0,1-4-1.92,9.3,9.3,0,0,1-1.37-5.45V56.2H108V52.53h4.25v-6.7Z"/><path class="cls-12" d="M135,80.74a9.48,9.48,0,0,1-7.74-3.7q-3-3.69-3-9.89v-.87a19.35,19.35,0,0,1,1.33-7.36,12,12,0,0,1,3.72-5.07A8.31,8.31,0,0,1,134.47,52a8.18,8.18,0,0,1,7.08,3.56q2.53,3.56,2.53,10.19v2H128.25a11,11,0,0,0,2,6.62,6,6,0,0,0,4.91,2.52,6.08,6.08,0,0,0,3.59-1,9.69,9.69,0,0,0,2.57-2.71l2.44,2.25A9.48,9.48,0,0,1,135,80.74Zm-.5-24.83A5,5,0,0,0,130.41,58a11.22,11.22,0,0,0-2,5.85h11.71v-.36a10.1,10.1,0,0,0-1.65-5.59A4.69,4.69,0,0,0,134.47,55.91Z"/><path class="cls-13" d="M160,56.78a10.08,10.08,0,0,0-2-.18c-2.62,0-4.39,1.33-5.33,4V80.23h-4V52.53h3.89l.07,3.2C154,53.26,155.82,52,158.23,52a3.49,3.49,0,0,1,1.77.36Z"/><path class="cls-14" d="M66.51,123.19V85.92H76.79q5.11,0,7.7,2.51c1.72,1.67,2.58,4.15,2.58,7.42a8.51,8.51,0,0,1-1.26,4.62,8.4,8.4,0,0,1-3.41,3.11,7.45,7.45,0,0,1,4,3.21,10.41,10.41,0,0,1,1.48,5.65,10.92,10.92,0,0,1-2.74,7.88q-2.74,2.87-7.76,2.87Zm4.14-21.37h6.27a6.36,6.36,0,0,0,4.47-10.48,6.59,6.59,0,0,0-4.6-1.4H70.65Zm0,3.94v13.41H77.5a6,6,0,0,0,4.57-1.78,6.88,6.88,0,0,0,1.67-4.9q0-6.73-6.18-6.73Z"/><path class="cls-15" d="M93.44,88.15a3.2,3.2,0,0,1,.59-2,2.37,2.37,0,0,1,3.53,0,3.09,3.09,0,0,1,.61,2,3,3,0,0,1-.61,1.92,2.43,2.43,0,0,1-3.53,0A3.11,3.11,0,0,1,93.44,88.15Zm4.32,35h-4V95.49h4Z"/><path class="cls-16" d="M107.93,95.49l.13,3.48a8.12,8.12,0,0,1,7-4q7.41,0,7.47,9.91v18.3h-4V104.86a7.22,7.22,0,0,0-1.16-4.43A4.23,4.23,0,0,0,113.85,99a5.14,5.14,0,0,0-3.41,1.23,8.17,8.17,0,0,0-2.29,3.22v19.74h-4V95.49Z"/></g></g></svg>