<svg fill="#6d788b" id="Layer_5" enable-background="new 0 0 64 64" height="512" viewBox="0 0 64 64" width="512" xmlns="http://www.w3.org/2000/svg"><g><path d="m17 43h10c1.103 0 2-.897 2-2 0-3.309-2.691-6-6-6h-6c-2.206 0-4 1.794-4 4s1.794 4 4 4zm0-6h6c2.206 0 4 1.794 4.001 4h-10.001c-1.103 0-2-.897-2-2s.897-2 2-2z"/><path d="m61.875 22.93c-5.553-1.515-9.498-6.435-9.842-12.124 1.145-.424 1.967-1.516 1.967-2.806v-4c0-1.654-1.346-3-3-3h-12c-1.654 0-3 1.346-3 3v4c0 .879.387 1.663.991 2.212-.078 4.896-2.83 9.291-7.014 11.564-.12-2.651-2.297-4.776-4.977-4.776h-1v-5c0-1.654-1.346-3-3-3h-4c-1.654 0-3 1.346-3 3v5h-1c-2.757 0-5 2.243-5 5v3h-2c-1.654 0-3 1.346-3 3v4.026c-1.207.913-2 2.347-2 3.974v22c0 2.757 2.243 5 5 5h19.756 2.244 28c3.86 0 7-3.141 7-7v-32.765zm-23.875-18.93c0-.552.449-1 1-1h1v4h2v-4h2v4h2v-4h2v4h2v-4h1c.551 0 1 .448 1 1v4c0 .552-.449 1-1 1h-12c-.551 0-1-.448-1-1zm.959 6.996c.014 0 .027.004.041.004h11.041c.324 4.963 3.037 9.401 7.128 12h-25.338c4.092-2.6 6.805-7.039 7.128-12.004zm-22.959 1.004c0-.552.449-1 1-1h4c.551 0 1 .448 1 1v5h-6zm-3 7h12c1.654 0 3 1.346 3 3v.651c-.288.1-.578.197-.875.279l-1.125.305v8.226c-.948-.299-1.955-.461-3-.461h-11v-3c0-1.302-.839-2.402-2-2.816v-3.184c0-1.654 1.346-3 3-3zm-8 9c0-.552.449-1 1-1h3c.551 0 1 .448 1 1v3h-4c-.342 0-.677.035-1 .101zm20.756 33h-19.756c-1.654 0-3-1.346-3-3v-22c0-1.654 1.346-3 3-3h17c4.411 0 8 3.589 8 8v2.496 14.504c0 1.654-1.346 3-3 3zm7.244-20v-12h24v28h-24v-13.504zm23 20h-24.026c.442-.584.773-1.257.924-2h24.102c1.103 0 2-.897 2-2v-28c0-1.103-.897-2-2-2h-24c-1.103 0-2 .897-2 2v6.026c-.809-1.081-1.828-1.992-3-2.672v-7.354h33v31c0 2.757-2.243 5-5 5z"/><path d="m53 53h2v2h-2z"/><path d="m45 53h2v2h-2z"/><path d="m49 53h2v2h-2z"/><path d="m29 56v-8c0-1.654-1.346-3-3-3h-18c-1.654 0-3 1.346-3 3v8c0 1.654 1.346 3 3 3h18c1.654 0 3-1.346 3-3zm-2 0c0 .552-.449 1-1 1h-18c-.551 0-1-.448-1-1v-8c0-.552.449-1 1-1h18c.551 0 1 .448 1 1z"/></g></svg>