<?xml version="1.0" encoding="utf-8"?>
<!-- Generator: Adobe Illustrator 24.1.0, SVG Export Plug-In . SVG Version: 6.00 Build 0)  -->
<svg version="1.1" id="Calque_1" xmlns="http://www.w3.org/2000/svg" xmlns:xlink="http://www.w3.org/1999/xlink" x="0px" y="0px"
	 viewBox="0 0 512 512" style="enable-background:new 0 0 512 512;" xml:space="preserve">
<style type="text/css">
	.st0{fill:#6D788B;}
</style>
<g id="Page-1">
	<g id="_x30_28---Throw-Paper" transform="translate(0 -1)">
		<path id="Shape" class="st0" d="M508.8,343.3l-23.6-47c-2.7-5.5-7.4-9.8-13-12.1l-70.8-29.4c-7.9-3.3-16.9-2.4-24,2.4l-29.8,19.9
			l-26.7-20.7c-9.6-7.4-23.1-7.1-32.4,0.9L254.1,287c-6.5,5.6-9.7,14-8.6,22.5l5.5,43.2l-32.5,29.2c-8.1,7.2-10.7,18.8-6.6,28.8
			l25.6,62.1c2.8,6.7,8.3,12,15.1,14.4l65.1,22.9c7.6,2.6,16,1.6,22.7-2.9l31.3-20.9l47.1,23.5c9,4.5,19.9,3.3,27.6-3.1l45.7-37.6
			c10.2-8.3,12.3-23,5-33.9l-16.7-25l27-41.5C512.3,361.1,512.8,351.4,508.8,343.3L508.8,343.3z M493.1,359.4l-30,46.2l-25.8,37.7
			c-2.7,3.9-1.7,9.2,2.2,11.8c3.9,2.7,9.2,1.7,11.8-2.2l18.8-27.4l12.8,19.2c2.4,3.6,1.7,8.5-1.7,11.3l-45.6,37.6
			c-2.6,2.1-6.2,2.5-9.2,1L388,475.4l9-6c3.9-2.6,5-7.9,2.4-11.8s-7.9-5-11.8-2.4l-21.3,14.2l-35.4,23.7c-2.2,1.5-5,1.8-7.6,1
			l-65.1-22.9c-2.3-0.8-4.1-2.5-5.1-4.8l-25.7-62.1c-1.4-3.3-0.5-7.2,2.2-9.6l24.5-22l9.1,48.9c0.8,4,4.3,7,8.4,7
			c0.5,0,1.1,0,1.6-0.1c4.6-0.9,7.7-5.3,6.8-9.9L268.2,355l-6-47.3c-0.4-2.8,0.7-5.6,2.9-7.5l34.5-29.8c3.1-2.7,7.6-2.8,10.8-0.3
			l31.4,24.4l47.1,39.9c3.6,2.9,8.9,2.4,11.8-1.1c3-3.5,2.6-8.8-0.8-11.9l-38.7-32.8l25.6-17c2.4-1.6,5.4-1.9,8-0.8l70.8,29.4
			c1.9,0.8,3.4,2.2,4.4,4l23.6,46.9C495,353.7,494.8,356.9,493.1,359.4L493.1,359.4z"/>
		<path id="Shape_1_" class="st0" d="M347.3,349c-1.7-2.6-4.6-4.1-7.7-3.9s-5.8,2-7.1,4.8c-1.3,2.8-1.1,6,0.7,8.6l20.6,30.9
			c2.3,3.4,1.8,7.9-1.1,10.8l-20.8,20.9c-2.2,2.1-3.1,5.3-2.3,8.3c0.8,3,3.1,5.3,6.1,6.1s6.1-0.1,8.3-2.3l20.8-20.9
			c8.6-8.6,9.9-22.1,3.2-32.2L347.3,349z"/>
		<path id="Shape_2_" class="st0" d="M430,365.4l-11,7.4c-9.2,6.1-13.4,17.4-10.5,28l3.9,14.1c1,3.7,4.4,6.3,8.2,6.3
			c0.8,0,1.5-0.1,2.3-0.3c2.2-0.6,4-2,5.1-4s1.4-4.3,0.8-6.5l-3.9-14.1c-1-3.5,0.4-7.3,3.5-9.4l11.1-7.4c2.6-1.6,4.2-4.6,4-7.7
			s-2-5.9-4.8-7.2C435.9,363.3,432.6,363.6,430,365.4L430,365.4z"/>
		<path id="Shape_3_" class="st0" d="M141.6,31.1c-3.2-6.1-8.7-10.7-15.3-12.7L73.7,2.6C60.5-1.5,46.4,5.8,42.1,19L1.8,140
			c-2.2,6.6-1.6,13.7,1.6,19.9c3.2,6.1,8.7,10.7,15.3,12.7l52.5,15.8c2.4,0.7,4.9,1.1,7.4,1.1c11,0,20.7-7.1,24.1-17.5l1.4-4.2
			L205.4,242c13.6,9.8,32.3,8.4,44.2-3.4c6.9-6.9,10.9-16.3,10.8-26.1c0-8.9-3.3-17.5-9.2-24.3L227,162.8c-1.8-2.1-2.5-4.9-1.8-7.6
			c0.8-2.9,3.1-5.3,6-6.2l41.5-19.7c5.1-2.4,11.1-2.1,16,0.7l107.8,63.3c18.3,10.7,41.3,9.1,57.8-4.1c6.9-5.5,11.1-13.7,11.4-22.5
			c0.4-8.8-3.1-17.3-9.5-23.4l-123.4-117C318.2,12.4,297.5,6.9,278,11.6L144.3,43.5C144.5,39.2,143.5,34.9,141.6,31.1L141.6,31.1z
			 M76.1,171.9l-52.5-15.8c-2.2-0.7-4-2.2-5.1-4.2s-1.2-4.4-0.5-6.6L58.3,24.4c1.1-3.5,4.4-5.8,8-5.9c0.8,0,1.7,0.1,2.5,0.4
			l52.5,15.8c2.2,0.7,4.1,2.2,5.1,4.2c1.1,2,1.3,4.4,0.5,6.6L86.6,166.4C85.2,170.8,80.5,173.3,76.1,171.9z M282.2,28.2
			c14-3.4,28.7,0.6,39.2,10.5l123.4,117c2.7,2.5,4.2,6,4.3,9.6c0,4.1-1.9,8-5.1,10.6c-11,8.8-26.4,9.9-38.6,2.7l-107.8-63.3
			c-9.7-5.7-21.7-6.3-31.9-1.5l-40.9,19.5c-7.9,3-13.8,9.6-15.8,17.7c-2,8.2,0.1,16.8,5.6,23.1l24.1,25.4c6.8,7.9,6.3,19.7-1.1,27
			c-5.9,5.9-15.3,6.6-22.1,1.7l-105.7-77.5l29.5-88.5L282.2,28.2z"/>
		<circle id="Oval" class="st0" cx="85.7" cy="61.1" r="8.5"/>
	</g>
</g>
</svg>
