<?xml version="1.0" encoding="utf-8"?>
<!-- Generator: Adobe Illustrator 21.0.0, SVG Export Plug-In . SVG Version: 6.00 Build 0)  -->
<svg version="1.1" id="Calque_1" xmlns="http://www.w3.org/2000/svg" xmlns:xlink="http://www.w3.org/1999/xlink" x="0px" y="0px"
	 viewBox="0 0 512 512" style="enable-background:new 0 0 512 512;" xml:space="preserve">
<style type="text/css">
	.st0{fill:#6D788B;}
</style>
<g id="Page-1">
	<g id="_x30_55---Pipe">
		<path id="Shape" class="st0" d="M477.9,443.7V324.3c-0.1-89.5-72.6-162-162.1-162.1h-85.3c-4.7,0-8.5-3.8-8.5-8.5V68.3
			c9.4,0,17.1-7.6,17.1-17.1V17.1c0-9.4-7.6-17.1-17.1-17.1H34.1c-9.4,0-17.1,7.6-17.1,17.1v34.1c0,9.4,7.6,17.1,17.1,17.1v119.5
			c0.1,89.5,72.6,162,162.1,162.1h85.3c4.7,0,8.5,3.8,8.5,8.5v85.3c-9.4,0-17.1,7.6-17.1,17.1v34.1c0,9.4,7.6,17.1,17.1,17.1h187.7
			c9.4,0,17.1-7.6,17.1-17.1v-34.1C494.9,451.4,487.3,443.7,477.9,443.7z M34.1,17.1h187.7v34.1H34.1V17.1z M281.6,332.8h-85.3
			c-80.1-0.1-145-65-145.1-145.1V68.3h153.6v85.3c0,14.1,11.5,25.6,25.6,25.6h85.3c80.1,0.1,145,65,145.1,145.1v119.5H307.2v-85.3
			C307.2,344.3,295.7,332.8,281.6,332.8z M290.1,494.9v-34.1h187.7v34.1H290.1z"/>
		<path id="Shape_1_" class="st0" d="M332.8,375.5h102.4c4.7,0,8.5-3.8,8.5-8.5s-3.8-8.5-8.5-8.5H332.8c-4.7,0-8.5,3.8-8.5,8.5
			S328.1,375.5,332.8,375.5z"/>
		<path id="Shape_2_" class="st0" d="M179.2,136.5H76.8c-4.7,0-8.5,3.8-8.5,8.5c0,4.7,3.8,8.5,8.5,8.5h102.4c4.7,0,8.5-3.8,8.5-8.5
			C187.7,140.4,183.9,136.5,179.2,136.5z"/>
		<path id="Shape_3_" class="st0" d="M256,196.3c-4.7,0-8.5,3.8-8.5,8.5v102.4c0,4.7,3.8,8.5,8.5,8.5s8.5-3.8,8.5-8.5V204.8
			C264.5,200.1,260.7,196.3,256,196.3z"/>
	</g>
</g>
</svg>
