<?xml version="1.0" encoding="utf-8"?>
<!-- Generator: Adobe Illustrator 24.1.0, SVG Export Plug-In . SVG Version: 6.00 Build 0)  -->
<svg version="1.1" id="Capa_1" xmlns="http://www.w3.org/2000/svg" xmlns:xlink="http://www.w3.org/1999/xlink" x="0px" y="0px"
	 viewBox="0 0 441 441" style="enable-background:new 0 0 441 441;" xml:space="preserve">
<style type="text/css">
	.st0{fill:#6D788B;}
</style>
<g>
	<g>
		<path class="st0" d="M268.8,227.8c-0.9-2.4-2.7-3.9-4.7-3.9h-24.4l19.1-94.4c0.6-3.1-0.5-6.4-2.6-7.9c-2.2-1.5-4.8-0.8-6.4,1.7
			L177,240c-1.3,2-1.5,4.9-0.7,7.3c0.9,2.4,2.7,3.9,4.7,3.9h24.4l-19.1,94.4c-0.6,3.1,0.5,6.4,2.6,7.9c0.8,0.5,1.6,0.8,2.4,0.8
			c1.5,0,3-0.9,4-2.5l72.8-116.7C269.4,233.1,269.7,230.2,268.8,227.8z M202.5,318.7l14.6-72.5c0.4-2.1,0.1-4.3-0.9-6
			s-2.5-2.7-4.1-2.7h-20.2l50.6-81.1L227.9,229c-0.4,2.1-0.1,4.3,0.9,6s2.5,2.7,4.1,2.7h20.2L202.5,318.7z"/>
	</g>
</g>
<g>
	<g>
		<path class="st0" d="M253.7,11h-62.4c-2.9,0-5.2,3.1-5.2,6.9v27.5c0,3.8,2.3,6.9,5.2,6.9h62.4c2.9,0,5.2-3.1,5.2-6.9V17.9
			C258.9,14.1,256.6,11,253.7,11z M248.5,38.5h-52V24.7h52V38.5z"/>
	</g>
</g>
<g>
	<g>
		<path class="st0" d="M280.6,38.5H164.4c-11,0-19.9,11.8-19.9,26.3v331.9c0,14.5,8.9,26.3,19.9,26.3h116.2
			c11,0,19.9-11.8,19.9-26.3V64.8C300.5,50.3,291.6,38.5,280.6,38.5z M290.1,396.7c0,6.9-4.3,12.6-9.5,12.6H164.4
			c-5.3,0-9.5-5.6-9.5-12.6V64.8c0-6.9,4.3-12.6,9.5-12.6h116.2c5.3,0,9.5,5.6,9.5,12.6L290.1,396.7L290.1,396.7z"/>
	</g>
</g>
</svg>
