<?xml version="1.0" encoding="utf-8"?>
<!-- Generator: Adobe Illustrator 24.1.0, SVG Export Plug-In . SVG Version: 6.00 Build 0)  -->
<svg version="1.1" id="Layer_1" xmlns="http://www.w3.org/2000/svg" xmlns:xlink="http://www.w3.org/1999/xlink" x="0px" y="0px"
	 viewBox="0 0 512 512" style="enable-background:new 0 0 512 512;" xml:space="preserve">
<style type="text/css">
	.st0{fill:#F6FFC5;}
</style>
<g>
	<path class="st0" d="M466.6,474.7c-5-35.6-19.4-69.8-41.2-98.4c-5.9-7.7-17.8,1.4-11.9,9.1c14.2,18.7,25.1,39.9,31.8,62.4
		c0.3,1,0.9,3.1,0.9,3.1c0,0,0,0,0,0c-18.8,0-37.7,3.1-55.3,9c-10.7,4.2-18.7,5.7-28.3-1.6c-14.6-11.3-29.6-10.9-45.4-1.4
		c-7.6,4.6-14.9,11-23.4,13.9c-11.6,3.9-19.4-2.3-18.7-13.9c0.5-7.3,2.1-14.4,5-21.1c11.9-28.3,0.2-44.8-27.4-55.4
		c-10.2-3.9-19.9-7.6-24-15.3c-3.8-7-2.5-17.1,3.7-30c4.7-9.7,10.4-19,17-27.6c50.6-1.7,100.1,17.1,138.3,50
		c9.4,8.1,18.8-3.4,10-11.2c-21.8-19.4-47.1-34.7-75-43.8c-18.9-6.1-39-9.6-59.1-10.4v-27.9l5.2-5.1c7.1,6.9,21.1,17.6,40,17.6
		c27.4,0,44.5-22.4,45.2-23.3c2-2.6,2-6.3,0.1-8.9c-10.5-14.4-29.1-23.9-46.9-23.4l6.2-6.1c16.1,0.7,33-4.2,44.6-15.8
		c19.4-19.3,15.7-47.3,15.5-48.4c-0.5-3.3-3-5.9-6.3-6.4c-1.2-0.2-28.9-4.2-48.6,15.5c-16,16-16.6,36-15.9,44.6L263.5,243v-91.2
		c21.2,0.8,43.8-6.9,59-22.2c27.3-27.3,21.7-65.6,21.4-67.2c-0.5-3.3-3.1-5.8-6.4-6.3c-1.4-0.2-31.2-4.1-56.6,12.8
		c-2.9-12.4-8.4-24.1-16.2-34.4c-10.9-14.3-26-26.2-42.5-33.5c-7.1-3.4-11.6,1.3-14.8,7.2c-5.8,9.2-10.2,19-13.3,29.3
		c-2.8,9.3,11.6,13.6,14.4,4.3c2.6-8.9,6.5-17.4,11.4-25.3c12.8,6.4,24.4,15.8,32.9,27c8.2,10.8,13.3,23.4,14.9,36.8
		c-16.6,18.5-19.3,41.8-19.3,54.6c-19.5-11.7-36.1-29.5-41.6-52c-2.3-9.4-16.9-5.9-14.6,3.5c7,29,29.7,52.8,56.2,65.6v54l-19.1-19.4
		c0.4-8.5-0.5-29.2-15.8-44.6c-19.3-19.3-47.3-15.6-48.5-15.5c-3.3,0.5-5.9,3-6.4,6.3c-0.2,1.2-4.3,28.8,15.5,48.6
		c12,11.4,28.2,17.1,44.7,15.9l29.7,30V292c-113.4,3.6-205.2,99.8-205.2,212.6c0,9.5,15,9.7,15,0c0-19.1,2.9-38.7,8.4-56.9
		c10.9-1.9,27.5,1.4,34.2,10.9c11.9,16.7,20.1,25.6,41.7,27.1c13.1,0.9,26.1,9.9,32.2,22.3c4,8,18.3,3.1,13.5-6.7
		c-8.6-17.4-26.1-29.4-44.7-30.7c-16.8-1.1-21.7-8.5-30.5-20.8c-8.5-11.9-24.3-18.5-41.3-17.7c25.7-65.6,88.4-114.4,158.3-123.5
		c-4.2,6.4-8,13.1-11.3,20c-8.4,17.5-9.5,32.2-3.3,43.6c6.8,12.6,20.1,17.7,31.9,22.2c19,7.3,27.3,15.7,19,35.6
		c-3.5,8.3-5.5,17-6.1,26c-1.4,22.2,17.4,36.2,38.5,29c9.8-3.3,17.6-10,26.4-15.2c10.2-6.1,18.8-7,28.5,0.5
		c13.3,10.2,27.1,10.2,42.2,3.9c17.2-5.8,35.8-8.6,54.2-8.2c2.5,12.7,3.8,25.8,3.8,38.7c0,9.7,15,9.7,15,0
		C468.7,494.6,468,484.5,466.6,474.7L466.6,474.7z M337.8,248.7c-5.4,5.1-15.8,12.9-29.1,12.9c-13.4,0-23.8-7.9-29.2-13
		c5.1-5.1,15-12.6,29.2-12.6C322.2,236,332.4,243.6,337.8,248.7L337.8,248.7z M184.8,171c-9.5-9.5-11.4-22.2-11.5-29.6
		c7.4,0.2,20.2,2,29.7,11.5c9.4,9.4,11.3,22.4,11.4,29.8C207.2,182.7,194.8,181,184.8,171z M329.2,170.3
		c9.5-9.5,22.2-11.3,29.6-11.5c-0.2,7.5-2.1,20.3-11.4,29.6c-9.5,9.4-22.4,11.3-29.9,11.4C317.5,192.7,319.1,180.4,329.2,170.3
		L329.2,170.3z M281,88.3c15.9-15.8,38-17.6,48.5-17.5c0.2,10.4-1.4,32.2-17.6,48.3c-17,17-38.4,18.3-48.4,17.8
		C263.4,126.5,265.1,104.2,281,88.3z"/>
	<path class="st0" d="M193.8,248.4c-9.7,0-9.7,15,0,15C203.5,263.4,203.5,248.4,193.8,248.4z"/>
	<path class="st0" d="M404.3,221.6c9.7,0,9.7-15,0-15C394.6,206.6,394.6,221.6,404.3,221.6z"/>
	<path class="st0" d="M147.4,83.3c9.7,0,9.7-15,0-15C137.7,68.2,137.7,83.3,147.4,83.3z"/>
	<path class="st0" d="M307,19.2c9.7,0,9.7-15,0-15C297.4,4.2,297.4,19.2,307,19.2z"/>
	<path class="st0" d="M389.3,111.3c9.7,0,9.7-15,0-15C379.6,96.3,379.6,111.3,389.3,111.3z"/>
	<path class="st0" d="M125,201.3c9.7,0,9.7-15,0-15C115.4,186.3,115.4,201.3,125,201.3z"/>
</g>
</svg>
