<?xml version="1.0" encoding="utf-8"?>
<!-- Generator: Adobe Illustrator 24.1.3, SVG Export Plug-In . SVG Version: 6.00 Build 0)  -->
<svg version="1.1" id="Calque_1" xmlns="http://www.w3.org/2000/svg" xmlns:xlink="http://www.w3.org/1999/xlink" x="0px" y="0px"
	 viewBox="0 0 1440 320" style="enable-background:new 0 0 1440 320;" xml:space="preserve">
<style type="text/css">
	.st0{fill:#B7DFD2;}
</style>
<path class="st0" d="M0,192l48-10.7c105.3-31.1,186.2-28.3,240.4-20c71.2,10.8,178.2,43.3,285.7,59.7c16.5,2.5,39.8,5.7,69.8,6
	c41.4,0.4,75.6-4.8,103.6-9c9.6-1.5,29.1-5,68.3-12c27.3-4.9,47.1-8.6,49.6-9c167.7-30.8,340.1-26.3,340.1-26.3
	c73,1.9,110.1,8,143,16.5c39.6,10.2,70.8,23.3,91.4,33c0-73.4,0-146.8,0-220.2h-48c-48,0-144,0-240,0S960,0,864,0S672,0,576,0
	S384,0,288,0S96,0,48,0H0V192z"/>
</svg>
