<?xml version="1.0" encoding="utf-8"?>
<!-- Generator: Adobe Illustrator 24.1.0, SVG Export Plug-In . SVG Version: 6.00 Build 0)  -->
<svg version="1.1" id="Calque_1" xmlns="http://www.w3.org/2000/svg" xmlns:xlink="http://www.w3.org/1999/xlink" x="0px" y="0px"
	 viewBox="0 0 417 417" style="enable-background:new 0 0 417 417;" xml:space="preserve">
<style type="text/css">
	.st0{fill:#6D788B;}
</style>
<path class="st0" d="M260.8,14.8C182.7-6.1,99.6,22,50.4,86s-55,151.3-14.5,221.1C62.3,353,106,386.5,157.3,400
	c17,4.6,34.5,6.9,52.1,6.9c71.4-0.1,137.3-38.2,173-99.9c35.6-61.7,35.6-137.7-0.1-199.3C355.9,61.8,312.1,28.4,260.8,14.8z
	 M389.4,255.6c-19.5,72.7-81.1,126.5-155.9,136.4c-74.9,9.8-148.3-26.3-186-91.5c-33.3-57.6-33.3-128.4,0-186
	C80.6,57,142.1,21.4,208.7,21.2c16.4,0,32.8,2.2,48.6,6.4c47.8,12.8,88.6,44,113.4,86.7C395.5,157.1,402.2,208,389.4,255.6
	L389.4,255.6z"/>
<path class="st0" d="M129,69.3c5.2-2.9,10.5-5.6,16-8c2.2-0.9,3.7-3,4-5.4s-0.8-4.7-2.7-6.1c-1.9-1.4-4.4-1.7-6.6-0.7
	c-5.9,2.6-11.7,5.5-17.3,8.6c-32.6,18.6-58.2,47.4-72.8,81.9c-1.4,3.4,0.1,7.3,3.5,8.7s7.3-0.1,8.7-3.5C75.3,113,98.9,86.5,129,69.3
	z"/>
<path class="st0" d="M365,266.6c-1.6-0.7-3.5-0.7-5.1,0s-3,1.9-3.6,3.6c-13.5,31.8-37.1,58.4-67.2,75.6c-10.5,6-21.6,10.8-33.2,14.4
	c-3.2,1-5.1,4.1-4.6,7.4s3.3,5.7,6.6,5.6c0.7,0,1.3-0.1,2-0.3c12.5-3.8,24.5-9.1,35.9-15.5c32.6-18.6,58.2-47.4,72.8-81.9
	C370,271.9,368.4,268,365,266.6z"/>
<path class="st0" d="M288.5,305.7c0.1-0.1,0.2-0.1,0.3-0.1c0.2-0.1,0.3-0.3,0.4-0.5c34.6-28.3,51.6-72.8,44.9-116.9
	c0-0.1,0-0.1,0-0.2c-4.6-30.7-20.6-58.6-44.8-78.1c-0.2-0.1-0.3-0.3-0.4-0.5c-0.1,0-0.2-0.1-0.2-0.1
	c-35.1-28.2-82.5-35.7-124.6-19.7c-0.1,0-0.1,0-0.2,0.1l-0.1,0.1c-12.4,4.5-23.9,11.2-34,19.6c-0.1,0.1-0.2,0.1-0.3,0.1
	c-0.2,0.1-0.3,0.3-0.4,0.5C94.3,138.2,77.2,182.6,84,226.7c0,0.1,0,0.1,0,0.2c6.7,44.7,36.9,82.5,79.2,98.7
	C205.6,342,253.4,334.3,288.5,305.7z M235.4,238.3c-0.2,0.1-0.4,0.2-0.5,0.3l-5.7,3.3l-11.7,6.7c-1.8,1.1-3,2.9-3.2,5
	c-4.3,0.5-8.7,0.3-13-0.4c-1-3.2-3.1-6-6-7.7l-12.5-7.2c-2.9-1.7-6.4-2.2-9.7-1.4c-1.7-2-3.2-4.1-4.5-6.3s-2.3-4.6-3.2-7
	c2.3-2.5,3.6-5.7,3.6-9.1v-14.4c0-3.4-1.3-6.6-3.6-9.1c1.5-4,3.6-7.9,6.1-11.3c1.9,0.9,4.1,0.8,5.9-0.3l4.9-2.9c0.1,0,0.2,0,0.2-0.1
	c0.2-0.1,0.4-0.2,0.5-0.3l5.7-3.3l11.7-6.7c1.8-1.1,3-2.9,3.2-5c4.3-0.5,8.7-0.3,13,0.4c1,3.2,3.2,6,6.1,7.7l12.4,7.2
	c3,1.7,6.5,2.2,9.8,1.4c1.7,2,3.1,4.1,4.5,6.3c1.3,2.2,2.3,4.6,3.2,7c-2.3,2.5-3.6,5.7-3.6,9.1v14.4c0,3.4,1.3,6.6,3.6,9.1
	c-1.5,4.1-3.6,7.9-6.2,11.4c-1.9-0.9-4.1-0.8-5.9,0.2l-4.9,2.8C235.6,238.2,235.5,238.2,235.4,238.3z M142.7,297.9l33.4-48l12.5,7.2
	l-25,52.8L142.7,297.9z M96.6,195.3l59.2,4.9v14.4l-59.2,4.9C95.6,211.5,95.6,203.4,96.6,195.3L96.6,195.3z M275.9,116.2l-34,48.8
	l-12.5-7.2l25.4-53.7C262.3,107.4,269.3,111.5,275.9,116.2L275.9,116.2z M321.6,219.6l-59.2-4.9v-14.4l59.2-4.9
	C322.5,203.4,322.5,211.5,321.6,219.6L321.6,219.6z M286.2,290.1l-31-44.5c4.3-5.2,7.7-11,10.1-17.3l54.1,4.5
	C314.3,254.8,302.7,274.8,286.2,290.1z M307.2,151c5.6,9.7,9.8,20.3,12.3,31.2l-54.3,4.5c-1.1-3.2-2.5-6.2-4.2-9.2
	c-1.7-2.9-3.7-5.7-5.9-8.2l31.1-44.5C294.5,132.4,301.6,141.2,307.2,151z M208.9,94.4c11.3,0,22.6,1.7,33.5,5.1l-23.2,49.1
	c-6.7-1.1-13.5-1.2-20.1-0.1l-23.2-49.1C186.5,96.1,197.6,94.5,208.9,94.4z M152.4,109.6c3.5-2,7.1-3.8,10.8-5.4l25.3,53.7l-6.4,3.7
	l-6,3.4l-34-48.8C145.5,113.8,148.9,111.6,152.4,109.6z M131.9,124.8l31,44.6c-4.3,5.2-7.7,11-10,17.3l-54.1-4.5
	C103.8,160.2,115.4,140.2,131.9,124.8z M110.9,264c-5.6-9.7-9.8-20.3-12.3-31.2l54.3-4.5c1.1,3.2,2.5,6.2,4.2,9.1
	c1.7,2.9,3.7,5.6,5.9,8.2l-31.1,44.6C123.6,282.5,116.5,273.7,110.9,264z M175.8,315.3l23.2-49c3.4,0.6,6.8,0.9,10.3,1
	c3.3,0,6.6-0.3,9.9-0.9l23.2,49.1C220.6,322,197.5,322,175.8,315.3z M254.9,310.8l-25.3-53.7l6.4-3.7l6-3.4l34,48.8
	C269.4,303.5,262.4,307.6,254.9,310.8L254.9,310.8z"/>
<path class="st0" d="M217.9,174.5c-15.7-4.2-32.2,3.3-39.4,17.9c-7.2,14.6-3.1,32.3,9.8,42.2c12.9,9.9,31,9.3,43.3-1.4
	c12.2-10.7,15.2-28.6,7-42.7C234.1,182.5,226.6,176.8,217.9,174.5z M225.6,211.9c-2.3,8.5-10.7,13.9-19.4,12.4s-14.8-9.5-14-18.3
	s8.1-15.6,17-15.6c1.5,0,3,0.2,4.4,0.6c4.4,1.2,8.1,4,10.4,8C226.1,202.8,226.7,207.5,225.6,211.9L225.6,211.9z"/>
<path class="st0" d="M169.1,47.9c0,3.7-3,6.6-6.7,6.6s-6.7-3-6.7-6.6c0-3.7,3-6.6,6.7-6.6C166.1,41.3,169.1,44.2,169.1,47.9z"/>
</svg>
