<?xml version="1.0" encoding="utf-8"?>
<!-- Generator: Adobe Illustrator 24.1.0, SVG Export Plug-In . SVG Version: 6.00 Build 0)  -->
<svg version="1.1" id="Calque_1" xmlns="http://www.w3.org/2000/svg" xmlns:xlink="http://www.w3.org/1999/xlink" x="0px" y="0px"
	 viewBox="0 0 480 480" style="enable-background:new 0 0 480 480;" xml:space="preserve">
<style type="text/css">
	.st0{fill:#6D788B;}
</style>
<path class="st0" d="M118,145.8c-3.5-0.9-6-4.1-6-7.7V8c0-4.4-3.6-8-8-8H56c-4.4,0-8,3.6-8,8v130.1c0,3.6-2.5,6.8-6,7.7
	C17.3,152.2,0,174.5,0,200v272c0,4.4,3.6,8,8,8h144c4.4,0,8-3.6,8-8V200C160,174.5,142.7,152.2,118,145.8z M64,16h32v16H64V16z
	 M144,376H16V264h128V376z M16,464v-72h128v72H16z M144,248H16v-48c0-18.2,12.3-34.2,30-38.7c10.6-2.7,18-12.2,18-23.2V48h32v90.1
	c0,10.9,7.4,20.5,18,23.2c17.6,4.6,30,20.5,30,38.7V248z"/>
<path class="st0" d="M290.2,178.9c-11.9-19.1-18.2-41.1-18.2-63.6V8c0-4.4-3.6-8-8-8h-48c-4.4,0-8,3.6-8,8v107.3
	c0,22.5-6.3,44.5-18.2,63.6l-1.1,1.8c-13.5,21.6-20.7,46.6-20.7,72.1V472c0,4.4,3.6,8,8,8h128c4.4,0,8-3.6,8-8V252.7
	c0-25.5-7.2-50.5-20.7-72.1L290.2,178.9z M224,16h32v16h-32V16z M296,464H184V252.7c0-22.5,6.3-44.5,18.2-63.6l1.1-1.8
	c13.5-21.6,20.7-46.6,20.7-72.1V48h32v67.3c0,25.5,7.2,50.5,20.7,72.1l1.1,1.7c11.9,19.1,18.2,41.1,18.2,63.6V464z"/>
<path class="st0" d="M240,280c-22.1,0-40,17.9-40,40s17.9,40,40,40s40-17.9,40-40C280,297.9,262.1,280,240,280z M240,344
	c-13.3,0-24-10.7-24-24s10.7-24,24-24s24,10.7,24,24S253.3,344,240,344z"/>
<path class="st0" d="M433.7,76.8L433.7,76.8c-1.1-0.7-1.7-1.9-1.7-3.1V8c0-4.4-3.6-8-8-8h-48c-4.4,0-8,3.6-8,8v65.7
	c0,1.2-0.6,2.4-1.6,3.1l-0.1,0.1c-29,19.3-46.3,51.8-46.3,86.5V472c0,4.4,3.6,8,8,8h144c4.4,0,8-3.6,8-8V163.4
	C480,128.6,462.7,96.1,433.7,76.8z M384,16h32v16h-32V16z M464,464H336V163.4c0-29.4,14.6-56.8,39.1-73.1l0.1-0.1
	c5.5-3.7,8.8-9.8,8.8-16.4V48h32v25.7c0,6.6,3.3,12.8,8.8,16.4l0.1,0.1c24.4,16.3,39.1,43.8,39.1,73.1V464z"/>
<path class="st0" d="M360,208c-4.4,0-8,3.6-8,8v208c0,4.4,3.6,8,8,8h80c4.4,0,8-3.6,8-8V216c0-4.4-3.6-8-8-8H360z M432,416h-64V224
	h64V416z"/>
</svg>
